<?xml version="1.0" encoding="utf-8"?>
<!-- Generator: Adobe Illustrator 16.0.0, SVG Export Plug-In . SVG Version: 6.00 Build 0)  -->
<!DOCTYPE svg PUBLIC "-//W3C//DTD SVG 1.1//EN" "http://www.w3.org/Graphics/SVG/1.1/DTD/svg11.dtd">
<svg version="1.1" id="Ebene_1" xmlns="http://www.w3.org/2000/svg" xmlns:xlink="http://www.w3.org/1999/xlink" x="0px" y="0px"
	 width="582.324px" height="97.714px" viewBox="0 0 582.324 97.714" enable-background="new 0 0 582.324 97.714"
	 xml:space="preserve">
<g>
	<path fill="#C6C7C8" d="M326.376-135.273c0,0.899-0.174,1.695-0.52,2.389c-0.346,0.69-0.827,1.276-1.441,1.752
		c-0.612,0.475-1.341,0.839-2.18,1.089c-0.84,0.251-1.743,0.377-2.713,0.377c-1.401,0-2.651-0.176-3.75-0.531
		c-1.1-0.354-2.1-0.992-2.999-1.91l2.336-2.335c0.589,0.589,1.264,0.995,2.024,1.22c0.762,0.226,1.565,0.338,2.414,0.338
		c1.092,0,1.913-0.199,2.467-0.598c0.555-0.397,0.831-0.969,0.831-1.714c0-0.638-0.19-1.149-0.571-1.53
		c-0.191-0.172-0.397-0.302-0.623-0.391c-0.225-0.086-0.571-0.163-1.039-0.232l-2.205-0.338c-0.832-0.121-1.532-0.307-2.104-0.558
		c-0.571-0.25-1.063-0.574-1.479-0.973c-0.884-0.849-1.325-2.06-1.325-3.636c0-0.829,0.146-1.586,0.441-2.27
		s0.718-1.273,1.271-1.766c0.555-0.493,1.229-0.879,2.025-1.155c0.795-0.277,1.695-0.417,2.698-0.417
		c1.28,0,2.396,0.165,3.349,0.494c0.951,0.328,1.826,0.882,2.622,1.661l-2.284,2.258c-0.57-0.552-1.193-0.904-1.868-1.05
		c-0.676-0.148-1.315-0.222-1.922-0.222c-0.969,0-1.683,0.229-2.141,0.687c-0.459,0.46-0.688,1.009-0.688,1.649
		c0,0.242,0.038,0.477,0.115,0.7c0.077,0.226,0.214,0.434,0.402,0.624c0.191,0.172,0.421,0.321,0.688,0.441
		c0.269,0.122,0.601,0.208,0.999,0.261l2.207,0.336c0.848,0.122,1.548,0.295,2.103,0.521c0.553,0.226,1.029,0.535,1.427,0.933
		c0.502,0.451,0.866,1.005,1.091,1.662C326.264-136.849,326.376-136.103,326.376-135.273z"/>
	<path fill="#C6C7C8" d="M343.12-142.542c0,0.779-0.139,1.52-0.415,2.22c-0.277,0.7-0.675,1.316-1.194,1.844
		c-0.52,0.527-1.159,0.942-1.921,1.245c-0.763,0.304-1.618,0.455-2.568,0.455h-3.557v6.957h-3.609v-18.484h7.166
		c0.95,0,1.807,0.152,2.568,0.455c0.762,0.304,1.401,0.719,1.921,1.247c0.521,0.528,0.917,1.142,1.194,1.842
		C342.982-144.059,343.12-143.319,343.12-142.542z M339.511-142.542c0-0.76-0.237-1.375-0.712-1.842
		c-0.479-0.468-1.131-0.703-1.961-0.703h-3.374v5.062h3.374c0.83,0,1.482-0.229,1.961-0.688
		C339.274-141.169,339.511-141.779,339.511-142.542z"/>
	<path fill="#C6C7C8" d="M346.415-129.822v-18.483h12.176v3.218h-8.566v4.336h7.294v3.219h-7.294v4.492h8.566v3.218H346.415z"/>
	<path fill="#C6C7C8" d="M375.126-135.505c-0.349,1.938-1.132,3.395-2.352,4.373c-1.221,0.978-2.694,1.466-4.424,1.466
		c-1.074,0-2.01-0.169-2.806-0.507c-0.797-0.336-1.515-0.817-2.154-1.44c-0.467-0.467-0.827-0.952-1.077-1.453
		c-0.249-0.501-0.432-1.052-0.545-1.648c-0.112-0.598-0.182-1.251-0.209-1.96c-0.025-0.708-0.036-1.504-0.036-2.387
		c0-0.883,0.011-1.679,0.036-2.389c0.027-0.71,0.097-1.364,0.209-1.96c0.113-0.598,0.296-1.146,0.545-1.648
		c0.25-0.502,0.61-0.986,1.077-1.454c0.641-0.624,1.357-1.103,2.154-1.44c0.796-0.337,1.73-0.507,2.806-0.507
		c1.729,0,3.203,0.49,4.424,1.466c1.22,0.979,2.003,2.438,2.352,4.375h-3.688c-0.189-0.763-0.528-1.39-1.012-1.882
		c-0.484-0.494-1.179-0.739-2.075-0.739c-0.503,0-0.949,0.085-1.338,0.259c-0.391,0.173-0.715,0.405-0.976,0.7
		c-0.173,0.192-0.315,0.408-0.427,0.65c-0.113,0.242-0.205,0.554-0.272,0.933c-0.069,0.381-0.121,0.862-0.155,1.442
		c-0.036,0.579-0.053,1.311-0.053,2.194c0,0.882,0.017,1.612,0.053,2.193c0.034,0.581,0.086,1.059,0.155,1.44
		c0.067,0.381,0.159,0.693,0.272,0.935c0.11,0.243,0.254,0.459,0.427,0.648c0.261,0.295,0.585,0.53,0.976,0.702
		c0.389,0.173,0.835,0.26,1.338,0.26c0.896,0,1.596-0.248,2.087-0.74c0.495-0.494,0.835-1.121,1.026-1.881L375.126-135.505
		L375.126-135.505z"/>
	<path fill="#C6C7C8" d="M378.422-129.822v-18.483h3.605v18.483H378.422z"/>
	<path fill="#C6C7C8" d="M397.476-129.822l-1.092-3.271h-6.566l-1.117,3.271h-3.765l6.725-18.483h2.83l6.749,18.483H397.476z
		 M393.166-142.854l-2.338,6.725h4.598L393.166-142.854z"/>
	<path fill="#C6C7C8" d="M404.146-129.822v-18.483h3.608v15.265h8.385v3.218H404.146z"/>
	<path fill="#C6C7C8" d="M419.36-129.822v-18.483h3.606v18.483H419.36z"/>
	<path fill="#C6C7C8" d="M439.214-135.273c0,0.899-0.173,1.695-0.519,2.389c-0.346,0.69-0.827,1.276-1.441,1.752
		c-0.612,0.475-1.342,0.839-2.18,1.089c-0.841,0.251-1.744,0.377-2.713,0.377c-1.402,0-2.652-0.176-3.75-0.531
		c-1.1-0.354-2.1-0.992-3.001-1.91l2.339-2.335c0.587,0.589,1.264,0.995,2.024,1.22c0.76,0.226,1.565,0.338,2.412,0.338
		c1.093,0,1.914-0.199,2.467-0.598c0.555-0.397,0.831-0.969,0.831-1.714c0-0.638-0.19-1.149-0.571-1.53
		c-0.19-0.172-0.397-0.302-0.624-0.391c-0.226-0.086-0.57-0.163-1.036-0.232l-2.209-0.338c-0.829-0.121-1.528-0.307-2.102-0.558
		c-0.571-0.25-1.063-0.574-1.479-0.973c-0.886-0.849-1.323-2.06-1.323-3.636c0-0.829,0.146-1.586,0.438-2.27
		c0.297-0.684,0.72-1.273,1.274-1.766c0.553-0.493,1.228-0.879,2.021-1.155c0.797-0.277,1.698-0.417,2.7-0.417
		c1.282,0,2.396,0.165,3.352,0.494c0.949,0.328,1.824,0.882,2.621,1.661l-2.285,2.258c-0.57-0.552-1.194-0.904-1.867-1.05
		c-0.678-0.148-1.314-0.222-1.921-0.222c-0.972,0-1.686,0.229-2.144,0.687c-0.459,0.46-0.688,1.009-0.688,1.649
		c0,0.242,0.037,0.477,0.116,0.7c0.079,0.226,0.212,0.434,0.401,0.624c0.191,0.172,0.421,0.321,0.689,0.441
		c0.269,0.122,0.601,0.208,0.999,0.261l2.206,0.336c0.849,0.122,1.548,0.295,2.104,0.521c0.552,0.226,1.029,0.535,1.428,0.933
		c0.503,0.451,0.864,1.005,1.089,1.662C439.102-136.849,439.214-136.103,439.214-135.273z"/>
	<path fill="#C6C7C8" d="M449.677-145.086v15.265h-3.609v-15.265h-4.829v-3.219h13.268v3.218L449.677-145.086L449.677-145.086z"/>
	<path fill="#C6C7C8" d="M469.379-135.273c0,0.899-0.174,1.695-0.52,2.389c-0.347,0.69-0.828,1.276-1.441,1.752
		c-0.613,0.475-1.342,0.839-2.181,1.089c-0.839,0.251-1.744,0.377-2.714,0.377c-1.4,0-2.65-0.176-3.749-0.531
		c-1.099-0.354-2.1-0.992-2.999-1.91l2.336-2.335c0.59,0.589,1.265,0.995,2.023,1.22c0.763,0.226,1.565,0.338,2.415,0.338
		c1.092,0,1.911-0.199,2.468-0.598c0.552-0.397,0.83-0.969,0.83-1.714c0-0.638-0.191-1.149-0.571-1.53
		c-0.19-0.172-0.396-0.302-0.623-0.391c-0.225-0.086-0.571-0.163-1.038-0.232l-2.206-0.338c-0.831-0.121-1.531-0.307-2.104-0.558
		c-0.571-0.25-1.063-0.574-1.48-0.973c-0.882-0.849-1.322-2.06-1.322-3.636c0-0.829,0.147-1.586,0.44-2.27
		c0.295-0.684,0.718-1.273,1.273-1.766c0.552-0.493,1.228-0.879,2.023-1.155c0.795-0.277,1.695-0.417,2.7-0.417
		c1.28,0,2.396,0.165,3.347,0.494c0.953,0.328,1.826,0.882,2.622,1.661l-2.286,2.258c-0.568-0.552-1.192-0.904-1.864-1.05
		c-0.677-0.148-1.317-0.222-1.924-0.222c-0.969,0-1.683,0.229-2.141,0.687c-0.458,0.46-0.688,1.009-0.688,1.649
		c0,0.242,0.037,0.477,0.116,0.7c0.075,0.226,0.211,0.434,0.4,0.624c0.191,0.172,0.421,0.321,0.688,0.441
		c0.27,0.122,0.602,0.208,0.999,0.261l2.209,0.336c0.847,0.122,1.547,0.295,2.103,0.521c0.552,0.226,1.029,0.535,1.428,0.933
		c0.5,0.451,0.863,1.005,1.089,1.662C469.266-136.849,469.379-136.103,469.379-135.273z"/>
	<path fill="#C6C7C8" d="M478.802-129.822v-18.483h3.605v18.483H478.802z"/>
	<path fill="#C6C7C8" d="M497.648-129.822l-7.32-11.344v11.344h-3.608v-18.483h3.219l7.319,11.319v-11.319h3.608v18.483H497.648z"/>
</g>
<g>
	<path fill="#C6C7C8" d="M314.409-93.299v-18.483h12.176v3.219h-8.565v4.335h7.293v3.218h-7.293v4.492h8.565v3.219H314.409z"/>
	<path fill="#C6C7C8" d="M343.25-93.299v-10.773l-3.529,7.01h-2.441l-3.557-7.01v10.773h-3.607v-18.483h3.558l4.828,9.997
		l4.803-9.997h3.557v18.483H343.25z"/>
	<path fill="#C6C7C8" d="M364.51-106.02c0,0.779-0.14,1.519-0.418,2.22c-0.277,0.7-0.674,1.316-1.193,1.842
		c-0.519,0.528-1.158,0.943-1.92,1.246c-0.761,0.305-1.617,0.455-2.57,0.455h-3.556v6.957h-3.608v-18.483h7.164
		c0.953,0,1.811,0.152,2.57,0.454c0.762,0.305,1.401,0.719,1.92,1.248c0.521,0.527,0.916,1.141,1.193,1.841
		C364.371-107.536,364.51-106.797,364.51-106.02z M360.901-106.02c0-0.76-0.238-1.375-0.714-1.842
		c-0.477-0.468-1.13-0.702-1.961-0.702h-3.373v5.062h3.373c0.831,0,1.484-0.229,1.961-0.688
		C360.662-104.646,360.901-105.257,360.901-106.02z"/>
	<path fill="#C6C7C8" d="M367.805-93.299v-18.483h3.606v18.483H367.805z"/>
	<path fill="#C6C7C8" d="M385.612-93.299l-3.606-7.373h-2.598v7.373h-3.605v-18.483h7.242c0.936,0,1.771,0.152,2.517,0.454
		c0.745,0.305,1.377,0.71,1.896,1.221c0.518,0.511,0.911,1.108,1.182,1.792c0.268,0.683,0.4,1.414,0.4,2.193
		c0,0.657-0.093,1.246-0.271,1.766c-0.183,0.519-0.429,0.982-0.739,1.389c-0.312,0.406-0.673,0.751-1.078,1.039
		c-0.404,0.286-0.834,0.506-1.284,0.661l4.128,7.97h-4.183V-93.299z M385.432-106.123c0-0.727-0.239-1.314-0.714-1.765
		c-0.478-0.451-1.113-0.676-1.907-0.676h-3.403v4.88h3.403c0.794,0,1.431-0.224,1.907-0.674
		C385.193-104.808,385.432-105.396,385.432-106.123z"/>
	<path fill="#C6C7C8" d="M393.063-93.299v-18.483h3.607v18.483H393.063z"/>
	<path fill="#C6C7C8" d="M414.192-98.983c-0.346,1.938-1.128,3.395-2.348,4.373c-1.221,0.979-2.696,1.467-4.428,1.467
		c-1.072,0-2.008-0.169-2.802-0.507c-0.797-0.336-1.517-0.815-2.155-1.44c-0.469-0.468-0.827-0.951-1.077-1.453
		c-0.253-0.502-0.434-1.051-0.545-1.648c-0.113-0.598-0.184-1.25-0.207-1.96c-0.025-0.708-0.041-1.505-0.041-2.388
		c0-0.881,0.016-1.678,0.041-2.388c0.023-0.709,0.094-1.363,0.207-1.96c0.111-0.597,0.292-1.146,0.545-1.648
		c0.25-0.501,0.608-0.985,1.077-1.453c0.64-0.624,1.358-1.102,2.155-1.44c0.794-0.338,1.729-0.507,2.802-0.507
		c1.73,0,3.207,0.49,4.428,1.467c1.22,0.979,2.002,2.437,2.348,4.375h-3.685c-0.191-0.762-0.528-1.389-1.015-1.881
		c-0.483-0.494-1.175-0.74-2.076-0.74c-0.502,0-0.946,0.086-1.338,0.259c-0.389,0.172-0.714,0.406-0.972,0.701
		c-0.173,0.191-0.315,0.407-0.429,0.649c-0.113,0.242-0.202,0.554-0.274,0.933c-0.067,0.381-0.12,0.862-0.153,1.442
		c-0.035,0.579-0.054,1.311-0.054,2.193c0,0.883,0.019,1.613,0.054,2.193c0.033,0.579,0.086,1.059,0.153,1.439
		c0.072,0.381,0.162,0.691,0.274,0.936c0.111,0.241,0.256,0.457,0.429,0.646c0.258,0.296,0.583,0.529,0.972,0.703
		c0.392,0.172,0.836,0.259,1.338,0.259c0.901,0,1.597-0.247,2.091-0.739c0.493-0.494,0.836-1.121,1.023-1.882L414.192-98.983
		L414.192-98.983z"/>
	<path fill="#C6C7C8" d="M428.183-93.299l-1.092-3.271h-6.566l-1.116,3.271h-3.764l6.722-18.483h2.832l6.749,18.483H428.183z
		 M423.873-106.331l-2.336,6.724h4.597L423.873-106.331z"/>
	<path fill="#C6C7C8" d="M434.854-93.299v-18.483h3.61v15.265h8.382v3.218H434.854z"/>
	<path fill="#C6C7C8" d="M456.035-93.299v-18.483h12.177v3.219h-8.565v4.335h7.292v3.218h-7.292v4.492h8.565v3.219H456.035z"/>
	<path fill="#C6C7C8" d="M484.72-98.983c-0.347,1.938-1.13,3.395-2.352,4.373c-1.22,0.979-2.694,1.467-4.424,1.467
		c-1.074,0-2.01-0.169-2.806-0.507c-0.796-0.336-1.514-0.815-2.153-1.44c-0.468-0.468-0.829-0.951-1.078-1.453
		c-0.25-0.502-0.432-1.051-0.545-1.648c-0.112-0.598-0.182-1.25-0.208-1.96c-0.027-0.708-0.038-1.505-0.038-2.388
		c0-0.881,0.011-1.678,0.038-2.388c0.026-0.709,0.096-1.363,0.208-1.96c0.113-0.597,0.295-1.146,0.545-1.648
		c0.249-0.501,0.61-0.985,1.078-1.453c0.642-0.624,1.357-1.102,2.153-1.44c0.796-0.338,1.73-0.507,2.806-0.507
		c1.729,0,3.204,0.49,4.424,1.467c1.222,0.979,2.004,2.437,2.352,4.375h-3.688c-0.189-0.762-0.526-1.389-1.013-1.881
		c-0.484-0.494-1.176-0.74-2.074-0.74c-0.504,0-0.948,0.086-1.337,0.259c-0.391,0.172-0.715,0.406-0.975,0.701
		c-0.174,0.191-0.317,0.407-0.43,0.649c-0.111,0.242-0.203,0.554-0.271,0.933c-0.069,0.381-0.122,0.862-0.156,1.442
		c-0.036,0.579-0.052,1.311-0.052,2.193c0,0.883,0.016,1.613,0.052,2.193c0.034,0.579,0.087,1.059,0.156,1.439
		c0.067,0.381,0.159,0.691,0.271,0.936c0.111,0.241,0.257,0.457,0.43,0.646c0.26,0.296,0.584,0.529,0.975,0.703
		c0.389,0.172,0.833,0.259,1.337,0.259c0.898,0,1.597-0.247,2.088-0.739c0.493-0.494,0.833-1.121,1.025-1.882L484.72-98.983
		L484.72-98.983z"/>
	<path fill="#C6C7C8" d="M500.865-102.54c0,0.883-0.014,1.679-0.038,2.387c-0.024,0.71-0.101,1.363-0.222,1.96
		c-0.122,0.597-0.308,1.147-0.559,1.647c-0.25,0.502-0.609,0.986-1.076,1.455c-0.623,0.623-1.333,1.104-2.128,1.439
		c-0.796,0.338-1.731,0.507-2.806,0.507c-1.073,0-2.011-0.169-2.816-0.507c-0.804-0.336-1.519-0.816-2.141-1.439
		c-0.468-0.469-0.826-0.953-1.077-1.455c-0.252-0.5-0.434-1.051-0.546-1.647s-0.183-1.25-0.206-1.96
		c-0.026-0.708-0.041-1.504-0.041-2.387c0-0.882,0.015-1.679,0.041-2.39c0.023-0.709,0.094-1.363,0.206-1.96
		c0.112-0.597,0.294-1.146,0.546-1.648c0.251-0.501,0.609-0.985,1.077-1.453c0.622-0.624,1.337-1.102,2.141-1.44
		c0.807-0.338,1.744-0.507,2.816-0.507c1.073,0,2.01,0.169,2.806,0.507c0.795,0.338,1.505,0.817,2.128,1.44
		c0.467,0.468,0.826,0.952,1.076,1.453c0.251,0.503,0.437,1.052,0.559,1.648c0.121,0.598,0.196,1.251,0.222,1.96
		C500.852-104.219,500.865-103.422,500.865-102.54z M497.256-102.54c0-0.882-0.018-1.614-0.052-2.193
		c-0.034-0.581-0.088-1.061-0.155-1.442c-0.069-0.379-0.161-0.688-0.271-0.92c-0.114-0.235-0.257-0.447-0.43-0.637
		c-0.26-0.294-0.583-0.533-0.975-0.714c-0.389-0.182-0.832-0.272-1.336-0.272c-0.502,0-0.945,0.09-1.338,0.272
		c-0.388,0.181-0.721,0.419-0.998,0.714c-0.173,0.189-0.314,0.402-0.429,0.637c-0.112,0.232-0.202,0.541-0.271,0.92
		c-0.07,0.381-0.118,0.862-0.144,1.442c-0.026,0.579-0.041,1.311-0.041,2.193c0,0.883,0.015,1.613,0.041,2.192
		c0.024,0.58,0.072,1.056,0.144,1.427c0.068,0.373,0.158,0.676,0.271,0.91c0.113,0.232,0.256,0.444,0.429,0.637
		c0.277,0.293,0.61,0.535,0.998,0.727c0.393,0.189,0.836,0.285,1.338,0.285c0.504,0,0.947-0.096,1.336-0.285
		c0.392-0.191,0.715-0.434,0.975-0.727c0.173-0.191,0.314-0.404,0.43-0.637c0.11-0.234,0.202-0.537,0.271-0.91
		c0.067-0.371,0.121-0.847,0.155-1.427C497.24-100.926,497.256-101.657,497.256-102.54z"/>
	<path fill="#C6C7C8" d="M515.48-93.299l-7.321-11.344v11.344h-3.606v-18.483h3.219l7.322,11.319v-11.319h3.605v18.483H515.48z"/>
	<path fill="#C6C7C8" d="M536.039-102.54c0,0.883-0.015,1.679-0.039,2.387c-0.024,0.71-0.101,1.363-0.22,1.96
		c-0.124,0.597-0.308,1.147-0.56,1.647c-0.251,0.502-0.61,0.986-1.078,1.455c-0.623,0.623-1.333,1.104-2.127,1.439
		c-0.797,0.338-1.732,0.507-2.804,0.507c-1.074,0-2.015-0.169-2.817-0.507c-0.803-0.336-1.52-0.816-2.14-1.439
		c-0.471-0.469-0.829-0.953-1.078-1.455c-0.251-0.5-0.433-1.051-0.545-1.647c-0.111-0.597-0.185-1.25-0.208-1.96
		c-0.026-0.708-0.039-1.504-0.039-2.387c0-0.882,0.013-1.679,0.039-2.39c0.023-0.709,0.097-1.363,0.208-1.96
		c0.112-0.597,0.294-1.146,0.545-1.648c0.249-0.501,0.607-0.985,1.078-1.453c0.62-0.624,1.337-1.102,2.14-1.44
		c0.804-0.338,1.743-0.507,2.817-0.507c1.07,0,2.007,0.169,2.804,0.507c0.794,0.338,1.504,0.817,2.127,1.44
		c0.468,0.468,0.827,0.952,1.078,1.453c0.252,0.503,0.436,1.052,0.56,1.648c0.119,0.598,0.194,1.251,0.22,1.96
		C536.025-104.219,536.039-103.422,536.039-102.54z M532.43-102.54c0-0.882-0.02-1.614-0.052-2.193
		c-0.034-0.581-0.087-1.061-0.154-1.442c-0.071-0.379-0.162-0.688-0.273-0.92c-0.112-0.235-0.256-0.447-0.429-0.637
		c-0.26-0.294-0.584-0.533-0.973-0.714c-0.392-0.182-0.835-0.272-1.337-0.272c-0.503,0-0.946,0.09-1.339,0.272
		c-0.39,0.181-0.722,0.419-0.998,0.714c-0.173,0.189-0.314,0.402-0.428,0.637c-0.112,0.232-0.205,0.541-0.273,0.92
		c-0.068,0.381-0.116,0.862-0.145,1.442c-0.024,0.579-0.036,1.311-0.036,2.193c0,0.883,0.012,1.613,0.036,2.192
		c0.027,0.58,0.075,1.056,0.145,1.427c0.068,0.373,0.161,0.676,0.273,0.91c0.112,0.232,0.255,0.444,0.428,0.637
		c0.276,0.293,0.608,0.535,0.998,0.727c0.393,0.189,0.836,0.285,1.339,0.285c0.502,0,0.945-0.096,1.337-0.285
		c0.389-0.191,0.713-0.434,0.973-0.727c0.173-0.191,0.315-0.404,0.429-0.637c0.111-0.234,0.202-0.537,0.273-0.91
		c0.067-0.371,0.12-0.847,0.154-1.427C532.411-100.926,532.43-101.657,532.43-102.54z"/>
	<path fill="#C6C7C8" d="M552.861-93.299v-10.773l-3.53,7.01h-2.44l-3.558-7.01v10.773h-3.607v-18.483h3.557l4.829,9.997
		l4.802-9.997h3.558v18.483H552.861z"/>
	<path fill="#C6C7C8" d="M560.777-93.299v-18.483h3.608v18.483H560.777z"/>
	<path fill="#C6C7C8" d="M581.673-98.983c-0.347,1.938-1.132,3.395-2.352,4.373c-1.217,0.979-2.692,1.467-4.424,1.467
		c-1.074,0-2.01-0.169-2.804-0.507c-0.797-0.336-1.517-0.815-2.154-1.44c-0.47-0.468-0.828-0.951-1.077-1.453
		c-0.253-0.502-0.433-1.051-0.545-1.648c-0.113-0.598-0.184-1.25-0.208-1.96c-0.027-0.708-0.04-1.505-0.04-2.388
		c0-0.881,0.013-1.678,0.04-2.388c0.024-0.709,0.095-1.363,0.208-1.96c0.112-0.597,0.292-1.146,0.545-1.648
		c0.249-0.501,0.607-0.985,1.077-1.453c0.639-0.624,1.357-1.102,2.154-1.44c0.794-0.338,1.729-0.507,2.804-0.507
		c1.729,0,3.207,0.49,4.424,1.467c1.22,0.979,2.005,2.437,2.352,4.375h-3.688c-0.188-0.762-0.525-1.389-1.01-1.881
		c-0.484-0.494-1.179-0.74-2.076-0.74c-0.505,0-0.946,0.086-1.338,0.259c-0.391,0.172-0.714,0.406-0.973,0.701
		c-0.173,0.191-0.317,0.407-0.429,0.649c-0.112,0.242-0.205,0.554-0.273,0.933c-0.068,0.381-0.12,0.862-0.154,1.442
		c-0.036,0.579-0.053,1.311-0.053,2.193c0,0.883,0.017,1.613,0.053,2.193c0.034,0.579,0.086,1.059,0.154,1.439
		s0.161,0.691,0.273,0.936c0.11,0.241,0.256,0.457,0.429,0.646c0.259,0.296,0.582,0.529,0.973,0.703
		c0.392,0.172,0.833,0.259,1.338,0.259c0.897,0,1.596-0.247,2.088-0.739c0.495-0.494,0.838-1.121,1.025-1.882L581.673-98.983
		L581.673-98.983z"/>
</g>
<g>
	<path fill="#C6C7C8" d="M324.222-56.774l-3.608-7.373h-2.595v7.373h-3.609v-18.484h7.243c0.936,0,1.773,0.152,2.518,0.454
		c0.743,0.306,1.377,0.71,1.896,1.222c0.52,0.512,0.912,1.107,1.181,1.791s0.401,1.414,0.401,2.193c0,0.656-0.091,1.245-0.271,1.766
		c-0.184,0.518-0.43,0.98-0.74,1.39c-0.312,0.405-0.671,0.751-1.077,1.038c-0.406,0.285-0.835,0.506-1.285,0.66l4.127,7.971H324.222
		z M324.04-69.598c0-0.729-0.236-1.314-0.714-1.768c-0.477-0.449-1.111-0.676-1.906-0.676h-3.4v4.881h3.4
		c0.795,0,1.431-0.223,1.906-0.674C323.803-68.284,324.04-68.872,324.04-69.598z"/>
	<path fill="#C6C7C8" d="M331.387-56.774v-18.484h12.175v3.219h-8.566v4.336h7.294v3.22h-7.294v4.489h8.566v3.221H331.387z"/>
	<path fill="#C6C7C8" d="M359.031-62.227c0,0.9-0.174,1.695-0.519,2.389c-0.347,0.69-0.826,1.276-1.441,1.754
		c-0.613,0.475-1.341,0.838-2.18,1.088c-0.84,0.252-1.744,0.379-2.712,0.379c-1.403,0-2.654-0.178-3.75-0.532
		c-1.102-0.354-2.102-0.992-3.002-1.91l2.339-2.335c0.587,0.59,1.263,0.995,2.023,1.221c0.761,0.225,1.565,0.338,2.413,0.338
		c1.094,0,1.913-0.199,2.466-0.598c0.556-0.398,0.831-0.97,0.831-1.715c0-0.639-0.189-1.148-0.57-1.53
		c-0.191-0.173-0.398-0.302-0.623-0.391c-0.227-0.087-0.57-0.163-1.037-0.231l-2.208-0.339c-0.83-0.12-1.53-0.308-2.104-0.558
		c-0.57-0.25-1.062-0.575-1.479-0.975c-0.885-0.849-1.323-2.06-1.323-3.636c0-0.829,0.146-1.585,0.438-2.269
		c0.298-0.686,0.721-1.274,1.273-1.768c0.554-0.492,1.229-0.878,2.023-1.154c0.796-0.276,1.697-0.416,2.7-0.416
		c1.28,0,2.396,0.166,3.351,0.494c0.95,0.328,1.824,0.883,2.621,1.662l-2.285,2.256c-0.571-0.551-1.194-0.902-1.868-1.049
		c-0.676-0.148-1.313-0.223-1.921-0.223c-0.971,0-1.685,0.229-2.143,0.688c-0.459,0.461-0.688,1.008-0.688,1.648
		c0,0.242,0.038,0.479,0.117,0.7c0.079,0.226,0.212,0.434,0.402,0.624c0.19,0.173,0.42,0.32,0.688,0.439
		c0.269,0.123,0.602,0.209,0.998,0.264l2.206,0.334c0.851,0.123,1.548,0.297,2.104,0.521c0.552,0.228,1.028,0.536,1.428,0.935
		c0.503,0.451,0.865,1.006,1.089,1.662C358.918-63.801,359.031-63.056,359.031-62.227z"/>
	<path fill="#C6C7C8" d="M362.433-56.774v-18.484h12.173v3.219h-8.566v4.336h7.297v3.22h-7.297v4.489h8.566v3.221H362.433z"/>
	<path fill="#C6C7C8" d="M388.65-56.774l-1.09-3.271h-6.567l-1.116,3.271h-3.766l6.726-18.482h2.828l6.749,18.482H388.65z
		 M384.34-69.808l-2.337,6.726h4.597L384.34-69.808z"/>
	<path fill="#C6C7C8" d="M404.509-56.774l-3.608-7.373h-2.595v7.373h-3.608v-18.484h7.243c0.933,0,1.773,0.152,2.517,0.454
		c0.744,0.306,1.377,0.71,1.896,1.222s0.912,1.107,1.179,1.791c0.271,0.684,0.402,1.414,0.402,2.193
		c0,0.656-0.091,1.245-0.271,1.766c-0.185,0.518-0.428,0.98-0.738,1.39c-0.312,0.405-0.673,0.751-1.078,1.038
		c-0.408,0.285-0.836,0.506-1.285,0.66l4.128,7.971H404.509z M404.328-69.598c0-0.729-0.238-1.314-0.714-1.768
		c-0.476-0.449-1.112-0.676-1.907-0.676h-3.4v4.881h3.4c0.795,0,1.433-0.223,1.907-0.674
		C404.089-68.284,404.328-68.872,404.328-69.598z"/>
	<path fill="#C6C7C8" d="M424.655-62.459c-0.348,1.938-1.131,3.396-2.352,4.375c-1.221,0.978-2.693,1.467-4.424,1.467
		c-1.074,0-2.01-0.17-2.806-0.508c-0.797-0.338-1.514-0.816-2.153-1.44c-0.469-0.468-0.828-0.952-1.078-1.453
		c-0.25-0.502-0.433-1.052-0.545-1.647c-0.111-0.599-0.182-1.252-0.208-1.963c-0.025-0.707-0.038-1.502-0.038-2.386
		c0-0.883,0.013-1.679,0.038-2.389c0.026-0.71,0.097-1.362,0.208-1.96c0.112-0.598,0.295-1.146,0.545-1.648s0.609-0.984,1.078-1.453
		c0.641-0.623,1.356-1.103,2.153-1.441c0.796-0.336,1.73-0.506,2.806-0.506c1.729,0,3.203,0.49,4.424,1.467
		c1.221,0.979,2.004,2.438,2.352,4.375h-3.688c-0.188-0.764-0.527-1.391-1.013-1.883c-0.483-0.492-1.177-0.738-2.074-0.738
		c-0.503,0-0.948,0.087-1.337,0.26c-0.391,0.174-0.716,0.405-0.976,0.7c-0.173,0.19-0.315,0.407-0.428,0.649
		c-0.113,0.242-0.204,0.554-0.272,0.933c-0.068,0.381-0.122,0.862-0.155,1.442c-0.035,0.578-0.053,1.311-0.053,2.192
		s0.018,1.612,0.053,2.192c0.033,0.58,0.087,1.06,0.155,1.441c0.068,0.381,0.159,0.691,0.272,0.936
		c0.11,0.242,0.255,0.457,0.428,0.646c0.26,0.295,0.585,0.53,0.976,0.701c0.389,0.174,0.834,0.26,1.337,0.26
		c0.897,0,1.596-0.246,2.088-0.738c0.495-0.494,0.835-1.123,1.024-1.883H424.655z"/>
	<path fill="#C6C7C8" d="M437.632-56.774v-7.736h-6.257v7.736h-3.607v-18.484h3.607v7.555h6.257v-7.555h3.605v18.483L437.632-56.774
		L437.632-56.774z"/>
</g>
<polyline fill="#A6D7D2" points="108.155,-55.938 108.155,-74.396 126.659,-74.396 "/>
<polyline fill="#A6D7D2" points="144.948,-55.938 144.948,-74.396 163.451,-74.396 "/>
<path fill="#00ABA4" d="M71.477-94.702c0,6.816-0.646,12.435-1.931,16.861c-1.288,4.424-3.661,8.41-7.121,11.95
	c-3.997,4.161-8.188,6.997-12.582,8.499c-4.394,1.506-9.12,2.258-14.181,2.258c-5.413,0-10.16-0.861-14.242-2.591
	c-4.086-1.726-7.77-4.181-11.051-7.366c-2.396-2.393-4.238-4.867-5.524-7.439c-1.288-2.564-2.221-5.377-2.796-8.434
	c-0.578-3.051-0.932-6.394-1.065-10.022c-0.135-3.626-0.199-7.701-0.199-12.215c0-4.519,0.063-8.589,0.199-12.22
	c0.134-3.628,0.487-6.97,1.065-10.026c0.576-3.053,1.508-5.862,2.796-8.433c1.286-2.565,3.128-5.046,5.524-7.436
	c3.281-3.189,6.965-5.645,11.051-7.37c4.082-1.726,8.829-2.59,14.242-2.59c5.505,0,10.339,0.843,14.514,2.522
	c4.17,1.684,7.722,3.919,10.651,6.709c2.926,2.789,5.257,5.998,6.988,9.628c1.73,3.629,2.906,7.436,3.526,11.418H52.706
	c-2.132-9.206-7.812-13.811-17.044-13.811c-2.573,0-4.835,0.466-6.79,1.397c-1.952,0.928-3.641,2.145-5.058,3.649
	c-0.888,0.977-1.622,2.06-2.195,3.254c-0.582,1.198-1.044,2.767-1.4,4.717c-0.354,1.945-0.598,4.405-0.73,7.368
	c-0.133,2.967-0.199,6.705-0.199,11.224c0,4.514,0.066,8.253,0.199,11.221c0.133,2.967,0.377,5.421,0.73,7.369
	c0.355,1.948,0.818,3.536,1.4,4.778c0.573,1.24,1.308,2.348,2.195,3.322c1.417,1.506,3.105,2.697,5.058,3.584
	c1.954,0.885,4.216,1.328,6.79,1.328c2.841,0,5.371-0.467,7.589-1.396c2.219-0.926,4.083-2.235,5.594-3.916
	c1.505-1.771,2.595-3.693,3.261-5.777c0.664-2.077,0.996-4.357,0.996-6.835v-3.455H35.662v-15.539h35.814V-94.702L71.477-94.702z"/>
<path fill="#00ABA4" d="M266.134-83.813c0,4.604-0.888,8.673-2.66,12.215c-1.778,3.539-4.242,6.531-7.389,8.963
	c-3.152,2.436-6.882,4.295-11.186,5.574c-4.306,1.285-8.941,1.924-13.911,1.924c-7.188,0-13.603-0.902-19.236-2.716
	c-5.638-1.815-10.765-5.069-15.378-9.761l11.98-11.954c3.02,3.01,6.479,5.093,10.385,6.241c3.902,1.152,8.033,1.729,12.381,1.729
	c5.594,0,9.808-1.02,12.648-3.054c2.838-2.038,4.258-4.959,4.258-8.767c0-3.271-0.976-5.886-2.926-7.834
	c-0.98-0.879-2.043-1.545-3.198-1.988c-1.152-0.445-2.926-0.842-5.323-1.198l-11.315-1.726c-4.262-0.617-7.854-1.571-10.785-2.853
	c-2.929-1.284-5.458-2.944-7.588-4.983c-4.527-4.338-6.79-10.535-6.79-18.59c0-4.251,0.753-8.122,2.263-11.622
	c1.511-3.495,3.684-6.507,6.525-9.029c2.838-2.523,6.298-4.491,10.385-5.909c4.08-1.417,8.695-2.127,13.846-2.127
	c6.565,0,12.291,0.845,17.173,2.523c4.879,1.684,9.362,4.516,13.444,8.5l-11.715,11.552c-2.929-2.83-6.125-4.624-9.584-5.378
	c-3.46-0.749-6.747-1.128-9.853-1.128c-4.974,0-8.631,1.175-10.983,3.519c-2.353,2.347-3.527,5.158-3.527,8.433
	c0,1.241,0.199,2.437,0.598,3.584c0.399,1.151,1.088,2.216,2.064,3.189c0.976,0.886,2.149,1.637,3.528,2.257
	c1.375,0.621,3.083,1.063,5.125,1.328l11.315,1.727c4.347,0.62,7.943,1.504,10.783,2.654c2.839,1.154,5.279,2.747,7.32,4.782
	c2.572,2.305,4.438,5.138,5.594,8.501C265.558-91.868,266.134-88.064,266.134-83.813"/>
<rect x="126.396" y="-108.68" fill="#00ABA4" width="18.501" height="52.756"/>
<rect x="163.326" y="-150.479" fill="#00ABA4" width="18.503" height="94.551"/>
<rect x="89.602" y="-150.476" fill="#00ABA4" width="18.503" height="94.552"/>
<g>
	<path fill="#646569" d="M315.582,15.086c0,0.824-0.16,1.563-0.486,2.218c-0.328,0.658-0.781,1.211-1.373,1.663
		c-0.592,0.457-1.311,0.809-2.15,1.051c-0.84,0.244-1.779,0.365-2.818,0.365c-0.738,0-1.418-0.045-2.041-0.141
		c-0.617-0.096-1.197-0.24-1.746-0.435c-0.545-0.188-1.059-0.444-1.535-0.761c-0.484-0.316-0.955-0.689-1.418-1.13l1.418-1.334
		c0.812,0.771,1.637,1.296,2.465,1.589c0.832,0.287,1.805,0.428,2.912,0.428c1.465,0,2.611-0.298,3.439-0.9
		c0.836-0.608,1.254-1.456,1.254-2.557c0-1.018-0.33-1.792-0.971-2.336c-0.152-0.118-0.305-0.232-0.461-0.328
		c-0.158-0.098-0.33-0.178-0.523-0.246c-0.197-0.073-0.422-0.133-0.682-0.184c-0.256-0.053-0.566-0.104-0.918-0.16l-2.303-0.312
		c-1.555-0.229-2.756-0.699-3.607-1.418c-1.016-0.857-1.521-2.029-1.521-3.51c0-0.789,0.146-1.507,0.443-2.15
		c0.289-0.65,0.717-1.206,1.264-1.666c0.543-0.463,1.201-0.816,1.979-1.062c0.779-0.246,1.658-0.368,2.641-0.368
		c1.25,0,2.34,0.166,3.248,0.497c0.902,0.332,1.777,0.85,2.631,1.549l-1.361,1.285c-0.59-0.541-1.244-0.948-1.967-1.223
		c-0.725-0.268-1.6-0.402-2.639-0.402c-1.328,0-2.361,0.314-3.092,0.957c-0.734,0.635-1.094,1.479-1.094,2.527
		c0,0.96,0.293,1.689,0.883,2.179c0.316,0.243,0.693,0.446,1.141,0.603c0.443,0.154,0.924,0.279,1.441,0.365l2.303,0.342
		c0.906,0.139,1.617,0.3,2.141,0.484c0.516,0.186,0.996,0.471,1.443,0.852c0.533,0.439,0.949,0.963,1.232,1.576
		C315.438,13.603,315.582,14.305,315.582,15.086"/>
	<path fill="#646569" d="M330.371,7.042c0-1.244-0.385-2.17-1.15-2.781c-0.768-0.611-1.775-0.92-3.014-0.92h-5.076v7.421h5.076
		c1.238,0,2.246-0.31,3.014-0.926C329.987,9.211,330.371,8.28,330.371,7.042 M332.483,7.042c0,0.836-0.152,1.592-0.447,2.266
		c-0.297,0.676-0.721,1.25-1.26,1.73c-0.551,0.484-1.197,0.855-1.947,1.115c-0.746,0.262-1.564,0.395-2.453,0.395h-5.244v7.682
		h-2.105V1.559h7.35c0.889,0,1.707,0.13,2.453,0.393c0.75,0.264,1.396,0.631,1.947,1.103c0.539,0.474,0.963,1.045,1.26,1.717
		C332.33,5.444,332.483,6.2,332.483,7.042"/>
</g>
<polygon fill="#646569" points="335.528,20.229 335.528,1.559 347.799,1.559 347.799,3.342 337.641,3.342 337.641,9.924 
	346.299,9.924 346.299,11.707 337.641,11.707 337.641,18.446 347.799,18.446 347.799,20.229 "/>
<g>
	<path fill="#646569" d="M364.219,14.827c-0.352,1.752-1.131,3.111-2.34,4.09c-1.215,0.98-2.713,1.471-4.514,1.471
		c-1.033,0-1.961-0.162-2.785-0.484c-0.824-0.326-1.543-0.777-2.152-1.354c-0.457-0.435-0.826-0.88-1.098-1.335
		c-0.266-0.457-0.469-0.97-0.596-1.546c-0.127-0.581-0.207-1.253-0.236-2.021c-0.033-0.771-0.041-1.689-0.041-2.756
		c0-1.064,0.008-1.98,0.041-2.749c0.029-0.767,0.109-1.444,0.236-2.019c0.127-0.58,0.33-1.095,0.596-1.549
		c0.271-0.452,0.641-0.9,1.098-1.334c0.609-0.578,1.328-1.029,2.152-1.355s1.752-0.48,2.785-0.48c1.801,0,3.299,0.486,4.514,1.465
		c1.209,0.979,1.988,2.342,2.34,4.092h-2.162c-0.258-1.153-0.795-2.07-1.609-2.754c-0.814-0.68-1.842-1.022-3.082-1.022
		c-1.354,0-2.484,0.437-3.41,1.311c-0.314,0.298-0.562,0.622-0.75,0.97c-0.184,0.348-0.324,0.766-0.418,1.246
		c-0.092,0.481-0.152,1.06-0.178,1.73c-0.031,0.672-0.041,1.49-0.041,2.449c0,0.965,0.01,1.783,0.041,2.455
		c0.025,0.672,0.086,1.249,0.178,1.73c0.094,0.483,0.234,0.895,0.418,1.243c0.188,0.349,0.436,0.675,0.75,0.974
		c0.926,0.873,2.057,1.311,3.41,1.311c1.24,0,2.279-0.34,3.107-1.023c0.834-0.686,1.379-1.598,1.641-2.754H364.219z"/>
</g>
<rect x="367.916" y="1.563" fill="#646569" width="2.105" height="18.666"/>
<path fill="#646569" d="M380.424,4.417l-3.715,9.856h7.381L380.424,4.417z M386.28,20.229l-1.58-4.221h-8.631l-1.584,4.221h-2.244
	l7.271-18.67h1.775l7.244,18.67H386.28z"/>
<polygon fill="#646569" points="390.746,20.229 390.746,1.559 392.854,1.559 392.854,18.446 402.953,18.446 402.953,20.229 "/>
<rect x="405.672" y="1.563" fill="#646569" width="2.109" height="18.666"/>
<g>
	<path fill="#646569" d="M424.432,15.086c0,0.824-0.162,1.563-0.482,2.218c-0.328,0.658-0.781,1.211-1.377,1.663
		c-0.592,0.457-1.311,0.809-2.15,1.051c-0.842,0.244-1.781,0.365-2.814,0.365c-0.742,0-1.422-0.045-2.041-0.141
		c-0.623-0.096-1.203-0.24-1.748-0.435c-0.543-0.188-1.059-0.444-1.539-0.761s-0.955-0.689-1.416-1.13l1.416-1.334
		c0.811,0.771,1.639,1.296,2.471,1.589c0.828,0.287,1.801,0.428,2.908,0.428c1.463,0,2.609-0.298,3.443-0.9
		c0.832-0.608,1.25-1.456,1.25-2.557c0-1.018-0.326-1.792-0.973-2.336c-0.145-0.118-0.299-0.232-0.457-0.328
		c-0.16-0.098-0.334-0.178-0.527-0.246c-0.193-0.073-0.424-0.133-0.68-0.184c-0.26-0.053-0.566-0.104-0.918-0.16l-2.299-0.312
		c-1.555-0.229-2.758-0.699-3.605-1.418c-1.023-0.857-1.531-2.029-1.531-3.51c0-0.789,0.15-1.507,0.445-2.15
		c0.297-0.65,0.717-1.206,1.264-1.666c0.547-0.463,1.209-0.816,1.984-1.062c0.777-0.246,1.65-0.368,2.633-0.368
		c1.258,0,2.338,0.166,3.244,0.497c0.91,0.332,1.791,0.85,2.635,1.549l-1.354,1.285c-0.594-0.541-1.248-0.948-1.969-1.223
		c-0.723-0.268-1.604-0.402-2.637-0.402c-1.332,0-2.365,0.314-3.094,0.957c-0.73,0.635-1.098,1.479-1.098,2.527
		c0,0.96,0.293,1.689,0.887,2.179c0.318,0.243,0.697,0.446,1.139,0.603c0.441,0.154,0.924,0.279,1.441,0.365l2.303,0.342
		c0.904,0.139,1.619,0.3,2.139,0.484c0.518,0.186,1.002,0.471,1.441,0.852c0.539,0.439,0.949,0.963,1.232,1.576
		C424.289,13.603,424.432,14.305,424.432,15.086"/>
</g>
<polygon fill="#646569" points="433.53,3.342 433.53,20.229 431.426,20.229 431.426,3.342 425.713,3.342 425.713,1.559 
	439.246,1.559 439.246,3.342 "/>
<g>
	<path fill="#646569" d="M453.869,15.086c0,0.824-0.16,1.563-0.486,2.218c-0.324,0.658-0.779,1.211-1.373,1.663
		c-0.59,0.457-1.309,0.809-2.148,1.051c-0.84,0.244-1.781,0.365-2.812,0.365c-0.748,0-1.422-0.045-2.043-0.141
		c-0.617-0.096-1.203-0.24-1.752-0.435c-0.539-0.188-1.055-0.444-1.537-0.761c-0.48-0.316-0.949-0.689-1.414-1.13l1.414-1.334
		c0.814,0.771,1.637,1.296,2.467,1.589c0.834,0.287,1.805,0.428,2.92,0.428c1.459,0,2.604-0.298,3.436-0.9
		c0.838-0.608,1.252-1.456,1.252-2.557c0-1.018-0.326-1.792-0.971-2.336c-0.152-0.118-0.305-0.232-0.459-0.328
		c-0.158-0.098-0.334-0.178-0.527-0.246c-0.193-0.073-0.42-0.133-0.682-0.184c-0.258-0.053-0.562-0.104-0.914-0.16l-2.303-0.312
		c-1.553-0.229-2.756-0.699-3.605-1.418c-1.021-0.857-1.527-2.029-1.527-3.51c0-0.789,0.146-1.507,0.445-2.15
		c0.293-0.65,0.715-1.206,1.26-1.666c0.547-0.463,1.207-0.816,1.986-1.062c0.775-0.246,1.656-0.368,2.637-0.368
		c1.254,0,2.338,0.166,3.246,0.497c0.906,0.332,1.781,0.85,2.637,1.549l-1.361,1.285c-0.594-0.541-1.25-0.948-1.971-1.223
		c-0.721-0.268-1.602-0.402-2.633-0.402c-1.334,0-2.369,0.314-3.098,0.957c-0.729,0.635-1.094,1.479-1.094,2.527
		c0,0.96,0.291,1.689,0.885,2.179c0.312,0.243,0.695,0.446,1.137,0.603c0.447,0.154,0.93,0.279,1.445,0.365l2.305,0.342
		c0.908,0.139,1.617,0.3,2.133,0.484c0.521,0.186,1.002,0.471,1.441,0.852c0.537,0.439,0.953,0.963,1.238,1.576
		C453.725,13.603,453.869,14.305,453.869,15.086"/>
</g>
<polygon fill="#646569" points="303.678,58.348 303.678,39.409 315.944,39.409 315.944,41.221 305.785,41.221 305.785,47.895 
	314.444,47.895 314.444,49.708 305.785,49.708 305.785,56.54 315.944,56.54 315.944,58.348 "/>
<polygon fill="#646569" points="334.168,58.348 334.168,43.956 328.762,55.372 326.961,55.372 321.461,43.956 321.461,58.348 
	319.354,58.348 319.354,39.409 321.461,39.409 327.901,52.848 334.168,39.409 336.28,39.409 336.28,58.348 "/>
<g>
	<path fill="#646569" d="M352.375,44.969c0-1.256-0.389-2.199-1.152-2.82c-0.773-0.621-1.773-0.928-3.012-0.928h-5.074v7.527h5.074
		c1.238,0,2.238-0.318,3.012-0.947C351.987,47.171,352.375,46.229,352.375,44.969 M354.481,44.969c0,0.852-0.15,1.618-0.443,2.301
		c-0.299,0.684-0.717,1.268-1.26,1.756c-0.547,0.49-1.195,0.867-1.945,1.129c-0.746,0.27-1.566,0.402-2.451,0.402h-5.244v7.795
		h-2.113V39.409h7.357c0.885,0,1.705,0.133,2.451,0.402c0.75,0.265,1.398,0.638,1.945,1.113c0.543,0.48,0.961,1.062,1.26,1.744
		C354.33,43.354,354.481,44.117,354.481,44.969"/>
</g>
<rect x="357.535" y="39.413" fill="#646569" width="2.104" height="18.936"/>
<g>
	<path fill="#646569" d="M375.707,44.704c0-1.173-0.367-2.047-1.098-2.624c-0.727-0.571-1.674-0.858-2.842-0.858h-5.27v6.94h5.27
		c1.168,0,2.115-0.283,2.842-0.853C375.34,46.743,375.707,45.875,375.707,44.704 M375.739,58.348l-4.498-8.406h-4.742v8.406h-2.113
		V39.409h7.576c0.85,0,1.637,0.122,2.361,0.359c0.717,0.241,1.338,0.586,1.857,1.039c0.518,0.451,0.92,1.005,1.207,1.662
		c0.287,0.656,0.428,1.394,0.428,2.206c0,1.385-0.395,2.515-1.191,3.392c-0.797,0.879-1.832,1.443-3.107,1.693l4.688,8.588H375.739z
		"/>
</g>
<rect x="381.619" y="39.413" fill="#646569" width="2.107" height="18.936"/>
<g>
	<path fill="#646569" d="M401.485,52.872c-0.35,1.771-1.129,3.152-2.342,4.146c-1.215,0.994-2.715,1.49-4.51,1.49
		c-1.041,0-1.969-0.162-2.789-0.494c-0.822-0.32-1.541-0.781-2.152-1.367c-0.459-0.443-0.824-0.898-1.096-1.357
		c-0.27-0.457-0.465-0.984-0.6-1.57c-0.125-0.584-0.203-1.27-0.229-2.049c-0.031-0.777-0.045-1.709-0.045-2.791
		c0-1.08,0.014-2.012,0.045-2.795c0.025-0.775,0.104-1.463,0.229-2.045c0.135-0.586,0.33-1.109,0.6-1.57
		c0.271-0.459,0.637-0.912,1.096-1.357c0.611-0.586,1.33-1.045,2.152-1.368c0.82-0.331,1.748-0.495,2.789-0.495
		c1.795,0,3.295,0.498,4.51,1.494c1.213,0.991,1.992,2.37,2.342,4.148h-2.162c-0.262-1.172-0.797-2.104-1.607-2.793
		c-0.816-0.693-1.844-1.039-3.082-1.039c-1.352,0-2.488,0.443-3.41,1.33c-0.318,0.301-0.568,0.63-0.754,0.98
		c-0.182,0.358-0.318,0.777-0.414,1.267c-0.094,0.489-0.154,1.076-0.182,1.759c-0.027,0.68-0.043,1.512-0.043,2.484
		c0,0.975,0.016,1.805,0.043,2.486c0.027,0.686,0.088,1.268,0.182,1.756c0.096,0.49,0.232,0.91,0.414,1.266
		c0.186,0.352,0.436,0.686,0.754,0.984c0.922,0.889,2.059,1.326,3.41,1.326c1.238,0,2.279-0.346,3.107-1.033
		c0.832-0.693,1.377-1.623,1.639-2.793H401.485z"/>
</g>
<path fill="#646569" d="M410.559,42.309l-3.715,10.002h7.381L410.559,42.309z M416.412,58.348l-1.58-4.283h-8.629l-1.584,4.283
	h-2.246l7.27-18.939h1.773l7.242,18.939H416.412z"/>
<polygon fill="#646569" points="420.875,58.348 420.875,39.409 422.987,39.409 422.987,56.54 433.088,56.54 433.088,58.348 "/>
<polygon fill="#646569" points="441.746,58.348 441.746,39.409 454.006,39.409 454.006,41.221 443.854,41.221 443.854,47.895 
	452.51,47.895 452.51,49.708 443.854,49.708 443.854,56.54 454.006,56.54 454.006,58.348 "/>
<g>
	<path fill="#646569" d="M470.434,52.872c-0.354,1.771-1.129,3.152-2.342,4.146c-1.211,0.994-2.715,1.49-4.51,1.49
		c-1.035,0-1.963-0.162-2.789-0.494c-0.824-0.32-1.539-0.781-2.146-1.367c-0.463-0.443-0.83-0.898-1.102-1.357
		c-0.264-0.457-0.469-0.984-0.596-1.57c-0.127-0.584-0.207-1.27-0.238-2.049c-0.023-0.777-0.039-1.709-0.039-2.791
		c0-1.08,0.016-2.012,0.039-2.795c0.031-0.775,0.111-1.463,0.238-2.045c0.127-0.586,0.332-1.109,0.596-1.57
		c0.271-0.459,0.639-0.912,1.102-1.357c0.607-0.586,1.322-1.045,2.146-1.368c0.826-0.331,1.754-0.495,2.789-0.495
		c1.795,0,3.299,0.498,4.51,1.494c1.213,0.991,1.988,2.37,2.342,4.148h-2.162c-0.26-1.172-0.795-2.104-1.609-2.793
		c-0.816-0.693-1.84-1.039-3.08-1.039c-1.354,0-2.486,0.443-3.41,1.33c-0.322,0.301-0.566,0.63-0.754,0.98
		c-0.18,0.358-0.32,0.777-0.416,1.267c-0.092,0.489-0.152,1.076-0.18,1.759c-0.027,0.68-0.041,1.512-0.041,2.484
		c0,0.975,0.014,1.805,0.041,2.486c0.027,0.686,0.088,1.268,0.18,1.756c0.096,0.49,0.236,0.91,0.416,1.266
		c0.188,0.352,0.432,0.686,0.754,0.984c0.924,0.889,2.057,1.326,3.41,1.326c1.24,0,2.275-0.346,3.104-1.033
		c0.834-0.693,1.381-1.623,1.641-2.793H470.434z"/>
	<path fill="#646569" d="M484.805,48.879c0-0.973-0.01-1.805-0.037-2.487c-0.027-0.68-0.088-1.269-0.182-1.756
		c-0.096-0.489-0.23-0.906-0.416-1.263c-0.186-0.354-0.438-0.684-0.75-0.984c-0.926-0.887-2.062-1.33-3.412-1.33
		c-1.348,0-2.488,0.443-3.412,1.33c-0.314,0.301-0.568,0.63-0.75,0.984c-0.186,0.356-0.322,0.773-0.412,1.263
		c-0.096,0.487-0.158,1.076-0.188,1.756c-0.027,0.683-0.037,1.515-0.037,2.487c0,0.977,0.01,1.809,0.037,2.486
		c0.029,0.686,0.092,1.268,0.188,1.756c0.09,0.49,0.227,0.91,0.412,1.264c0.182,0.354,0.436,0.688,0.75,0.984
		c0.924,0.889,2.064,1.332,3.412,1.332c1.35,0,2.486-0.443,3.412-1.332c0.312-0.297,0.564-0.631,0.75-0.984s0.32-0.773,0.416-1.264
		c0.094-0.488,0.154-1.07,0.182-1.756C484.795,50.688,484.805,49.856,484.805,48.879 M486.918,48.879
		c0,1.082-0.021,2.014-0.057,2.791c-0.039,0.779-0.119,1.465-0.25,2.049c-0.129,0.586-0.328,1.113-0.598,1.572
		c-0.268,0.461-0.633,0.912-1.098,1.355c-0.607,0.586-1.32,1.045-2.133,1.367c-0.814,0.332-1.738,0.494-2.775,0.494
		c-1.035,0-1.963-0.162-2.787-0.494c-0.824-0.322-1.543-0.781-2.152-1.367c-0.463-0.443-0.826-0.895-1.096-1.355
		c-0.268-0.459-0.465-0.986-0.596-1.572c-0.131-0.584-0.207-1.27-0.236-2.049c-0.027-0.777-0.043-1.709-0.043-2.791
		c0-1.08,0.016-2.012,0.043-2.791c0.029-0.779,0.105-1.467,0.236-2.049c0.131-0.586,0.328-1.109,0.596-1.57
		c0.27-0.459,0.633-0.912,1.096-1.357c0.609-0.586,1.328-1.043,2.152-1.368c0.824-0.331,1.752-0.491,2.787-0.491
		c1.037,0,1.961,0.16,2.775,0.491c0.812,0.325,1.525,0.782,2.133,1.368c0.465,0.445,0.83,0.898,1.098,1.357
		c0.27,0.461,0.469,0.984,0.598,1.57c0.131,0.582,0.211,1.27,0.25,2.049C486.897,46.868,486.918,47.799,486.918,48.879"/>
</g>
<polygon fill="#646569" points="503.508,58.348 493.016,43.161 493.016,58.348 490.912,58.348 490.912,39.409 492.908,39.409 
	503.399,54.545 503.399,39.409 505.506,39.409 505.506,58.348 "/>
<g>
	<path fill="#646569" d="M521.213,48.879c0-0.973-0.016-1.805-0.045-2.487c-0.023-0.68-0.084-1.269-0.18-1.756
		c-0.086-0.489-0.23-0.906-0.414-1.263c-0.188-0.354-0.436-0.684-0.752-0.984c-0.922-0.887-2.059-1.33-3.41-1.33
		s-2.486,0.443-3.412,1.33c-0.314,0.301-0.566,0.63-0.75,0.984c-0.184,0.356-0.326,0.773-0.416,1.263
		c-0.098,0.487-0.154,1.076-0.182,1.756c-0.027,0.683-0.041,1.515-0.041,2.487c0,0.977,0.014,1.809,0.041,2.486
		c0.027,0.686,0.084,1.268,0.182,1.756c0.09,0.49,0.232,0.91,0.416,1.264s0.436,0.688,0.75,0.984
		c0.926,0.889,2.061,1.332,3.412,1.332s2.488-0.443,3.41-1.332c0.316-0.297,0.564-0.631,0.752-0.984
		c0.184-0.354,0.328-0.773,0.414-1.264c0.096-0.488,0.156-1.07,0.18-1.756C521.198,50.688,521.213,49.856,521.213,48.879
		 M523.321,48.879c0,1.082-0.02,2.014-0.059,2.791c-0.031,0.779-0.117,1.465-0.244,2.049c-0.131,0.586-0.33,1.113-0.602,1.572
		c-0.268,0.461-0.633,0.912-1.092,1.355c-0.611,0.586-1.324,1.045-2.137,1.367c-0.816,0.332-1.742,0.494-2.775,0.494
		c-1.039,0-1.967-0.162-2.789-0.494c-0.822-0.322-1.537-0.781-2.154-1.367c-0.457-0.443-0.822-0.895-1.094-1.355
		c-0.268-0.459-0.465-0.986-0.59-1.572c-0.135-0.584-0.213-1.27-0.242-2.049c-0.027-0.777-0.043-1.709-0.043-2.791
		c0-1.08,0.016-2.012,0.043-2.791c0.029-0.779,0.107-1.467,0.242-2.049c0.125-0.586,0.322-1.109,0.59-1.57
		c0.271-0.459,0.637-0.912,1.094-1.357c0.617-0.586,1.332-1.043,2.154-1.368c0.822-0.331,1.75-0.491,2.789-0.491
		c1.033,0,1.959,0.16,2.775,0.491c0.812,0.325,1.525,0.782,2.137,1.368c0.459,0.445,0.824,0.898,1.092,1.357
		c0.271,0.461,0.471,0.984,0.602,1.57c0.127,0.582,0.213,1.27,0.244,2.049C523.301,46.868,523.321,47.799,523.321,48.879"/>
</g>
<polygon fill="#646569" points="542.131,58.348 542.131,43.956 536.723,55.372 534.92,55.372 529.42,43.956 529.42,58.348 
	527.313,58.348 527.313,39.409 529.42,39.409 535.862,52.848 542.131,39.409 544.24,39.409 544.24,58.348 "/>
<rect x="548.987" y="39.413" fill="#646569" width="2.105" height="18.936"/>
<g>
	<path fill="#646569" d="M568.856,52.872c-0.354,1.771-1.135,3.152-2.35,4.146c-1.213,0.994-2.717,1.49-4.508,1.49
		c-1.039,0-1.967-0.162-2.787-0.494c-0.824-0.32-1.541-0.781-2.154-1.367c-0.459-0.443-0.824-0.898-1.094-1.357
		c-0.266-0.457-0.467-0.984-0.598-1.57c-0.127-0.584-0.205-1.27-0.236-2.049c-0.025-0.777-0.039-1.709-0.039-2.791
		c0-1.08,0.014-2.012,0.039-2.795c0.031-0.775,0.109-1.463,0.236-2.045c0.131-0.586,0.332-1.109,0.598-1.57
		c0.27-0.459,0.635-0.912,1.094-1.357c0.613-0.586,1.33-1.045,2.154-1.368c0.82-0.331,1.748-0.495,2.787-0.495
		c1.791,0,3.295,0.498,4.508,1.494c1.215,0.991,1.996,2.37,2.35,4.148h-2.17c-0.258-1.172-0.793-2.104-1.607-2.793
		c-0.812-0.693-1.842-1.039-3.08-1.039c-1.35,0-2.486,0.443-3.41,1.33c-0.316,0.301-0.57,0.63-0.752,0.98
		c-0.182,0.358-0.32,0.777-0.414,1.267s-0.156,1.076-0.18,1.759c-0.033,0.68-0.043,1.512-0.043,2.484
		c0,0.975,0.01,1.805,0.043,2.486c0.023,0.686,0.086,1.268,0.18,1.756c0.094,0.49,0.232,0.91,0.414,1.266
		c0.182,0.352,0.436,0.686,0.752,0.984c0.924,0.889,2.061,1.326,3.41,1.326c1.238,0,2.271-0.346,3.109-1.033
		c0.834-0.693,1.375-1.623,1.635-2.793H568.856z"/>
	<path fill="#646569" d="M314.996,82.899c0-1.137-0.365-1.986-1.096-2.543c-0.729-0.562-1.678-0.842-2.84-0.842h-5.275v6.744h5.275
		c1.162,0,2.111-0.271,2.84-0.826C314.631,84.887,314.996,84.04,314.996,82.899 M315.028,96.159l-4.494-8.166h-4.748v8.166h-2.109
		V77.756h7.578c0.848,0,1.637,0.119,2.359,0.35c0.719,0.232,1.338,0.57,1.857,1.01c0.52,0.436,0.918,0.975,1.207,1.615
		c0.287,0.635,0.434,1.354,0.434,2.146c0,1.344-0.402,2.441-1.199,3.293c-0.793,0.852-1.828,1.398-3.107,1.641l4.691,8.348H315.028z
		"/>
</g>
<polygon fill="#646569" points="320.906,77.756 320.906,96.159 333.172,96.159 333.172,94.407 323.016,94.407 323.016,87.758 
	331.67,87.758 331.67,86.002 323.016,86.002 323.016,79.514 333.172,79.514 333.172,77.756 "/>
<g>
	<path fill="#646569" d="M348.49,91.092c0,0.811-0.16,1.539-0.486,2.184c-0.324,0.646-0.781,1.195-1.375,1.645
		c-0.592,0.443-1.311,0.791-2.15,1.031s-1.779,0.359-2.812,0.359c-0.746,0-1.426-0.041-2.043-0.135
		c-0.615-0.098-1.203-0.24-1.746-0.432c-0.545-0.186-1.061-0.438-1.541-0.746c-0.482-0.312-0.951-0.684-1.416-1.115l1.416-1.316
		c0.816,0.758,1.639,1.279,2.473,1.566c0.83,0.281,1.801,0.422,2.914,0.422c1.457,0,2.604-0.295,3.438-0.887
		c0.83-0.598,1.248-1.441,1.248-2.521c0-1-0.324-1.766-0.967-2.299c-0.15-0.119-0.305-0.23-0.459-0.326
		c-0.162-0.098-0.338-0.176-0.529-0.246c-0.193-0.066-0.42-0.131-0.682-0.178c-0.258-0.053-0.562-0.104-0.914-0.158l-2.305-0.312
		c-1.553-0.219-2.756-0.684-3.604-1.393c-1.023-0.848-1.525-1.998-1.525-3.463c0-0.773,0.141-1.482,0.441-2.117
		c0.293-0.641,0.711-1.189,1.264-1.645c0.545-0.453,1.205-0.803,1.982-1.041c0.777-0.248,1.652-0.367,2.635-0.367
		c1.258,0,2.344,0.168,3.248,0.494c0.906,0.326,1.785,0.834,2.635,1.525l-1.359,1.262c-0.592-0.533-1.246-0.934-1.971-1.199
		c-0.719-0.268-1.6-0.4-2.633-0.4c-1.332,0-2.367,0.311-3.098,0.943c-0.729,0.627-1.096,1.459-1.096,2.494
		c0,0.947,0.295,1.66,0.887,2.145c0.318,0.24,0.693,0.438,1.139,0.592c0.443,0.158,0.926,0.275,1.447,0.361l2.301,0.34
		c0.908,0.139,1.621,0.295,2.135,0.477c0.52,0.184,1,0.465,1.441,0.84c0.537,0.432,0.949,0.947,1.232,1.551
		C348.346,89.629,348.49,90.317,348.49,91.092"/>
</g>
<polygon fill="#646569" points="351.932,77.756 351.932,96.159 364.196,96.159 364.196,94.407 354.035,94.407 354.035,87.758 
	362.696,87.758 362.696,86.002 354.035,86.002 354.035,79.514 364.196,79.514 364.196,77.756 "/>
<path fill="#646569" d="M373.264,80.571l3.66,9.723h-7.373L373.264,80.571z M372.354,77.756l-7.277,18.402h2.25l1.584-4.156h8.629
	l1.58,4.156h2.248l-7.242-18.402H372.354z"/>
<g>
	<path fill="#646569" d="M394.906,82.899c0-1.137-0.369-1.986-1.098-2.543c-0.723-0.562-1.674-0.842-2.842-0.842h-5.275v6.744h5.275
		c1.168,0,2.119-0.271,2.842-0.826C394.537,84.887,394.906,84.04,394.906,82.899 M394.934,96.159l-4.49-8.166h-4.752v8.166h-2.105
		V77.756h7.574c0.852,0,1.639,0.119,2.357,0.35c0.723,0.232,1.34,0.57,1.861,1.01c0.52,0.436,0.924,0.975,1.207,1.615
		c0.287,0.635,0.43,1.354,0.43,2.146c0,1.344-0.398,2.441-1.195,3.293c-0.793,0.852-1.828,1.398-3.107,1.641l4.693,8.348H394.934z"
		/>
	<path fill="#646569" d="M413.696,90.834c-0.355,1.723-1.135,3.07-2.348,4.033c-1.209,0.967-2.713,1.445-4.504,1.445
		c-1.043,0-1.971-0.158-2.789-0.475c-0.824-0.32-1.545-0.768-2.154-1.336c-0.465-0.428-0.826-0.865-1.096-1.314
		c-0.266-0.453-0.465-0.959-0.6-1.527c-0.129-0.57-0.203-1.23-0.232-1.986c-0.025-0.76-0.043-1.662-0.043-2.719
		c0-1.051,0.018-1.953,0.043-2.711c0.029-0.754,0.104-1.422,0.232-1.992c0.135-0.564,0.334-1.078,0.6-1.52
		c0.27-0.449,0.631-0.885,1.096-1.322c0.609-0.566,1.33-1.014,2.154-1.328c0.818-0.322,1.746-0.479,2.789-0.479
		c1.791,0,3.295,0.48,4.504,1.447c1.213,0.967,1.992,2.307,2.348,4.035h-2.168c-0.26-1.143-0.795-2.043-1.605-2.721
		c-0.814-0.668-1.838-1.006-3.078-1.006c-1.354,0-2.492,0.434-3.414,1.295c-0.316,0.289-0.566,0.613-0.752,0.951
		c-0.184,0.35-0.32,0.754-0.416,1.23c-0.094,0.475-0.15,1.047-0.178,1.707c-0.031,0.666-0.045,1.467-0.045,2.412
		c0,0.951,0.014,1.758,0.045,2.42c0.027,0.662,0.084,1.23,0.178,1.707c0.096,0.471,0.232,0.885,0.416,1.227
		c0.186,0.344,0.436,0.662,0.752,0.957c0.922,0.861,2.061,1.291,3.414,1.291c1.24,0,2.271-0.34,3.107-1.008
		c0.83-0.672,1.373-1.576,1.635-2.715H413.696z"/>
</g>
<polygon fill="#646569" points="428.871,77.756 428.871,86.002 419.492,86.002 419.492,77.756 417.383,77.756 417.383,96.159 
	419.492,96.159 419.492,87.758 428.871,87.758 428.871,96.159 430.983,96.159 430.983,77.756 "/>
<polygon fill="#646569" points="483.379,20.364 472.889,5.172 472.889,20.364 470.785,20.364 470.785,1.424 472.778,1.424 
	483.27,16.561 483.27,1.424 485.377,1.424 485.377,20.364 "/>
<rect x="463.764" y="1.424" fill="#646569" width="2.113" height="18.939"/>
<polygon fill="#9CD4CF" points="109.027,77.708 109.027,96.19 127.631,77.708 "/>
<polygon fill="#9CD4CF" points="146.237,77.708 146.237,96.19 164.843,77.708 "/>
<g>
	<path fill="#00A9A2" d="M71.871,57.372c0,6.828-0.648,12.457-1.942,16.887c-1.293,4.434-3.683,8.426-7.161,11.969
		c-4.017,4.168-8.234,7.004-12.649,8.516c-4.419,1.506-9.171,2.256-14.26,2.256c-5.443,0-10.218-0.861-14.32-2.592
		c-4.111-1.729-7.811-4.188-11.113-7.379c-2.41-2.396-4.263-4.879-5.557-7.451c-1.292-2.568-2.229-5.383-2.81-8.443
		c-0.58-3.059-0.937-6.402-1.069-10.041c-0.138-3.631-0.205-7.713-0.205-12.231c0-4.522,0.067-8.601,0.205-12.237
		c0.132-3.635,0.489-6.98,1.069-10.043c0.581-3.057,1.518-5.871,2.81-8.441c1.294-2.57,3.147-5.053,5.557-7.449
		c3.302-3.193,7.002-5.653,11.113-7.381c4.102-1.728,8.877-2.593,14.32-2.593c5.534,0,10.396,0.843,14.593,2.526
		c4.194,1.686,7.765,3.926,10.711,6.717c2.941,2.791,5.285,6.008,7.025,9.643c1.741,3.637,2.921,7.446,3.547,11.436h-18.74
		c-2.144-9.22-7.855-13.829-17.136-13.829c-2.588,0-4.864,0.466-6.828,1.397c-1.961,0.926-3.66,2.148-5.085,3.652
		c-0.892,0.98-1.628,2.064-2.208,3.258c-0.583,1.199-1.05,2.775-1.406,4.725c-0.356,1.951-0.602,4.412-0.734,7.381
		c-0.134,2.971-0.203,6.717-0.203,11.239c0,4.519,0.068,8.267,0.203,11.239c0.132,2.971,0.377,5.43,0.734,7.377
		c0.356,1.951,0.824,3.545,1.406,4.787c0.58,1.24,1.317,2.352,2.208,3.326c1.426,1.506,3.124,2.707,5.085,3.588
		c1.964,0.889,4.24,1.328,6.828,1.328c2.855,0,5.401-0.463,7.63-1.391c2.23-0.93,4.104-2.24,5.625-3.926
		c1.514-1.773,2.61-3.699,3.28-5.787c0.668-2.076,1.001-4.363,1.001-6.846V59.1H35.858V43.54h36.013V57.372z"/>
	<path fill="#00A9A2" d="M267.605,68.276c0,4.611-0.894,8.689-2.676,12.234c-1.788,3.547-4.264,6.539-7.43,8.975
		c-3.168,2.439-6.917,4.303-11.245,5.584c-4.332,1.291-8.993,1.93-13.99,1.93c-7.228,0-13.677-0.904-19.343-2.725
		c-5.669-1.816-10.82-5.076-15.462-9.775l12.048-11.969c3.035,3.014,6.514,5.098,10.444,6.252c3.924,1.152,8.074,1.729,12.448,1.729
		c5.624,0,9.858-1.02,12.717-3.059c2.854-2.037,4.284-4.965,4.284-8.781c0-3.277-0.983-5.893-2.944-7.842
		c-0.985-0.885-2.053-1.545-3.212-1.992c-1.164-0.447-2.944-0.842-5.355-1.199l-11.379-1.729c-4.283-0.619-7.897-1.572-10.844-2.859
		c-2.943-1.283-5.488-2.945-7.628-4.99c-4.552-4.34-6.827-10.548-6.827-18.617c0-4.254,0.756-8.132,2.275-11.637
		c1.518-3.5,3.702-6.516,6.56-9.045c2.854-2.523,6.334-4.497,10.441-5.916c4.104-1.418,8.747-2.128,13.923-2.128
		c6.604,0,12.358,0.843,17.268,2.524c4.907,1.688,9.416,4.523,13.521,8.516l-11.782,11.568c-2.944-2.836-6.156-4.633-9.637-5.387
		c-3.479-0.75-6.782-1.131-9.907-1.131c-4.999,0-8.68,1.174-11.045,3.524c-2.364,2.353-3.547,5.166-3.547,8.444
		c0,1.244,0.202,2.441,0.603,3.591c0.402,1.152,1.094,2.219,2.077,3.192c0.981,0.888,2.161,1.639,3.546,2.262
		c1.383,0.621,3.098,1.062,5.154,1.328l11.377,1.73c4.371,0.62,7.987,1.508,10.845,2.656c2.855,1.159,5.307,2.751,7.363,4.791
		c2.587,2.311,4.464,5.145,5.624,8.516C267.025,60.208,267.605,64.022,267.605,68.276"/>
</g>
<rect x="127.631" y="43.37" fill="#00A9A2" width="18.606" height="52.836"/>
<rect x="164.241" y="1.51" fill="#00A9A2" width="18.606" height="94.691"/>
<rect x="89.745" y="1.232" fill="#00A9A2" width="19.298" height="94.695"/>
</svg>
